<mxfile host="app.diagrams.net" modified="2022-08-16T07:53:19.402Z" agent="5.0 (Windows NT 10.0; Win64; x64) AppleWebKit/537.36 (KHTML, like Gecko) Chrome/104.0.5112.81 Safari/537.36" etag="x7OLKDi_xbQSQ3OOVxI_" version="17.4.3" type="github">
  <diagram id="wZdI7dE1JEswA_voXtGo" name="Page-1">
    <mxGraphModel dx="1422" dy="786" grid="1" gridSize="10" guides="1" tooltips="1" connect="1" arrows="1" fold="1" page="1" pageScale="1" pageWidth="827" pageHeight="1169" math="0" shadow="0">
      <root>
        <mxCell id="0" />
        <mxCell id="1" parent="0" />
        <mxCell id="kC00eRK6WWWZrCWtLVhx-1" value="" style="rounded=1;whiteSpace=wrap;html=1;" vertex="1" parent="1">
          <mxGeometry x="350" y="150" width="120" height="70" as="geometry" />
        </mxCell>
        <mxCell id="kC00eRK6WWWZrCWtLVhx-2" value="" style="rounded=1;whiteSpace=wrap;html=1;" vertex="1" parent="1">
          <mxGeometry x="360" y="160" width="120" height="70" as="geometry" />
        </mxCell>
        <mxCell id="kC00eRK6WWWZrCWtLVhx-3" value="Client" style="rounded=1;whiteSpace=wrap;html=1;" vertex="1" parent="1">
          <mxGeometry x="370" y="170" width="120" height="70" as="geometry" />
        </mxCell>
        <mxCell id="kC00eRK6WWWZrCWtLVhx-4" value="" style="endArrow=classic;startArrow=classic;html=1;rounded=0;entryX=0.5;entryY=1;entryDx=0;entryDy=0;" edge="1" parent="1" target="kC00eRK6WWWZrCWtLVhx-3">
          <mxGeometry width="50" height="50" relative="1" as="geometry">
            <mxPoint x="430" y="320" as="sourcePoint" />
            <mxPoint x="450" y="300" as="targetPoint" />
          </mxGeometry>
        </mxCell>
        <mxCell id="kC00eRK6WWWZrCWtLVhx-5" value="Nginx集群" style="ellipse;whiteSpace=wrap;html=1;" vertex="1" parent="1">
          <mxGeometry x="370" y="320" width="120" height="80" as="geometry" />
        </mxCell>
        <mxCell id="kC00eRK6WWWZrCWtLVhx-6" value="GatewayB" style="rounded=1;whiteSpace=wrap;html=1;" vertex="1" parent="1">
          <mxGeometry x="370" y="460" width="120" height="70" as="geometry" />
        </mxCell>
        <mxCell id="kC00eRK6WWWZrCWtLVhx-7" value="GatewayN" style="rounded=1;whiteSpace=wrap;html=1;" vertex="1" parent="1">
          <mxGeometry x="560" y="460" width="120" height="70" as="geometry" />
        </mxCell>
        <mxCell id="kC00eRK6WWWZrCWtLVhx-8" value="GatewayA" style="rounded=1;whiteSpace=wrap;html=1;" vertex="1" parent="1">
          <mxGeometry x="180" y="460" width="120" height="70" as="geometry" />
        </mxCell>
        <mxCell id="kC00eRK6WWWZrCWtLVhx-9" value="&lt;font style=&quot;font-size: 19px&quot;&gt;...&lt;/font&gt;" style="text;html=1;strokeColor=none;fillColor=none;align=center;verticalAlign=middle;whiteSpace=wrap;rounded=0;" vertex="1" parent="1">
          <mxGeometry x="497" y="480" width="60" height="30" as="geometry" />
        </mxCell>
        <mxCell id="kC00eRK6WWWZrCWtLVhx-11" value="" style="endArrow=classic;startArrow=classic;html=1;rounded=0;fontSize=19;entryX=0.5;entryY=1;entryDx=0;entryDy=0;exitX=0.5;exitY=0;exitDx=0;exitDy=0;" edge="1" parent="1" source="kC00eRK6WWWZrCWtLVhx-8" target="kC00eRK6WWWZrCWtLVhx-5">
          <mxGeometry width="50" height="50" relative="1" as="geometry">
            <mxPoint x="230" y="430" as="sourcePoint" />
            <mxPoint x="280" y="380" as="targetPoint" />
            <Array as="points">
              <mxPoint x="240" y="440" />
              <mxPoint x="430" y="430" />
            </Array>
          </mxGeometry>
        </mxCell>
        <mxCell id="kC00eRK6WWWZrCWtLVhx-12" value="" style="endArrow=classic;startArrow=classic;html=1;rounded=0;fontSize=19;entryX=0.5;entryY=1;entryDx=0;entryDy=0;exitX=0.5;exitY=0;exitDx=0;exitDy=0;" edge="1" parent="1" source="kC00eRK6WWWZrCWtLVhx-6" target="kC00eRK6WWWZrCWtLVhx-5">
          <mxGeometry width="50" height="50" relative="1" as="geometry">
            <mxPoint x="460" y="450" as="sourcePoint" />
            <mxPoint x="510" y="400" as="targetPoint" />
          </mxGeometry>
        </mxCell>
        <mxCell id="kC00eRK6WWWZrCWtLVhx-13" value="" style="endArrow=classic;startArrow=classic;html=1;rounded=0;fontSize=19;exitX=0.5;exitY=0;exitDx=0;exitDy=0;" edge="1" parent="1" source="kC00eRK6WWWZrCWtLVhx-7">
          <mxGeometry width="50" height="50" relative="1" as="geometry">
            <mxPoint x="250" y="470" as="sourcePoint" />
            <mxPoint x="430" y="400" as="targetPoint" />
            <Array as="points">
              <mxPoint x="620" y="440" />
              <mxPoint x="430" y="430" />
            </Array>
          </mxGeometry>
        </mxCell>
        <mxCell id="kC00eRK6WWWZrCWtLVhx-14" value="Nacos集群" style="ellipse;whiteSpace=wrap;html=1;" vertex="1" parent="1">
          <mxGeometry x="370" y="630" width="120" height="80" as="geometry" />
        </mxCell>
        <mxCell id="kC00eRK6WWWZrCWtLVhx-18" value="" style="endArrow=classic;startArrow=classic;html=1;rounded=0;fontSize=19;entryX=0.5;entryY=1;entryDx=0;entryDy=0;exitX=0.5;exitY=0;exitDx=0;exitDy=0;" edge="1" parent="1" source="kC00eRK6WWWZrCWtLVhx-14" target="kC00eRK6WWWZrCWtLVhx-6">
          <mxGeometry width="50" height="50" relative="1" as="geometry">
            <mxPoint x="440" y="610" as="sourcePoint" />
            <mxPoint x="490" y="560" as="targetPoint" />
          </mxGeometry>
        </mxCell>
        <mxCell id="kC00eRK6WWWZrCWtLVhx-19" value="" style="endArrow=classic;startArrow=classic;html=1;rounded=0;fontSize=19;exitX=0.5;exitY=0;exitDx=0;exitDy=0;entryX=0.5;entryY=1;entryDx=0;entryDy=0;" edge="1" parent="1" source="kC00eRK6WWWZrCWtLVhx-14" target="kC00eRK6WWWZrCWtLVhx-7">
          <mxGeometry width="50" height="50" relative="1" as="geometry">
            <mxPoint x="470" y="630" as="sourcePoint" />
            <mxPoint x="520" y="580" as="targetPoint" />
            <Array as="points">
              <mxPoint x="430" y="570" />
              <mxPoint x="620" y="560" />
            </Array>
          </mxGeometry>
        </mxCell>
        <mxCell id="kC00eRK6WWWZrCWtLVhx-20" value="" style="endArrow=classic;startArrow=classic;html=1;rounded=0;fontSize=19;exitX=0.5;exitY=0;exitDx=0;exitDy=0;entryX=0.5;entryY=1;entryDx=0;entryDy=0;" edge="1" parent="1" source="kC00eRK6WWWZrCWtLVhx-14" target="kC00eRK6WWWZrCWtLVhx-8">
          <mxGeometry width="50" height="50" relative="1" as="geometry">
            <mxPoint x="320" y="620" as="sourcePoint" />
            <mxPoint x="370" y="570" as="targetPoint" />
            <Array as="points">
              <mxPoint x="430" y="570" />
              <mxPoint x="240" y="560" />
            </Array>
          </mxGeometry>
        </mxCell>
      </root>
    </mxGraphModel>
  </diagram>
</mxfile>
